HIERARCHY
ROOT Hips
{
	OFFSET 0.000000 88.474243 0.000000
	CHANNELS 6 Xposition Yposition Zposition Zrotation Yrotation Xrotation 
	JOINT Hips_Spine
	{
		OFFSET 0.000000 0.000000 0.000000
		CHANNELS 3 Zrotation Yrotation Xrotation
		JOINT Spine
		{
			OFFSET 0.005100 8.711998 -0.691000
			CHANNELS 3 Zrotation Yrotation Xrotation
			JOINT Spine1
			{
				OFFSET -0.009200 8.660301 -1.275000
				CHANNELS 3 Zrotation Yrotation Xrotation
				JOINT Spine2
				{
					OFFSET 0.006300 9.852501 -1.857000
					CHANNELS 3 Zrotation Yrotation Xrotation
					JOINT Spine2_Neck
					{
						OFFSET 0.000000 0.000000 0.000000
						CHANNELS 3 Zrotation Yrotation Xrotation
						JOINT Neck
						{
							OFFSET 0.016300 11.420799 -0.263300
							CHANNELS 3 Zrotation Yrotation Xrotation
							End Site #name: Head
							{
								OFFSET -0.019200 9.262405 2.362500
							}
						}
					}
					JOINT Spine2_LeftShoulder
					{
						OFFSET 0.000000 0.000000 0.000000
						CHANNELS 3 Zrotation Yrotation Xrotation
						JOINT LeftShoulder
						{
							OFFSET 5.616900 6.732201 -0.345700
							CHANNELS 3 Zrotation Yrotation Xrotation
							JOINT LeftArm
							{
								OFFSET 10.664888 -0.183372 -2.440700
								CHANNELS 3 Zrotation Yrotation Xrotation
								JOINT LeftForeArm
								{
									OFFSET 27.459126 0.000000 0.000000
									CHANNELS 3 Zrotation Yrotation Xrotation
									End Site #name: LeftHand
									{
										OFFSET 21.306858 0.000000 0.000000
									}
								}
							}
						}
					}
					JOINT Spine2_RightShoulder
					{
						OFFSET 0.000000 0.000000 0.000000
						CHANNELS 3 Zrotation Yrotation Xrotation
						JOINT RightShoulder
						{
							OFFSET -5.580300 6.737503 -0.344400
							CHANNELS 3 Zrotation Yrotation Xrotation
							JOINT RightArm
							{
								OFFSET -10.679335 -0.188484 -2.383900
								CHANNELS 3 Zrotation Yrotation Xrotation
								JOINT RightForeArm
								{
									OFFSET -27.503529 0.000000 0.000000
									CHANNELS 3 Zrotation Yrotation Xrotation
									End Site #name: RightHand
									{
										OFFSET -21.306808 0.000000 0.000000
									}
								}
							}
						}
					}
				}
			}
		}
	}
	JOINT Hips_LeftUpLeg
	{
		OFFSET 0.000000 0.000000 0.000000
		CHANNELS 3 Zrotation Yrotation Xrotation
		JOINT LeftUpLeg
		{
			OFFSET 6.857700 -6.739601 0.312100
			CHANNELS 3 Zrotation Yrotation Xrotation
			JOINT LeftLeg
			{
				OFFSET -0.367590 -34.731552 -4.572400
				CHANNELS 3 Zrotation Yrotation Xrotation
				End Site #name: LeftFoot
				{
					OFFSET 0.367590 -34.656704 -6.067400
				}
			}
		}
	}
	JOINT Hips_RightUpLeg
	{
		OFFSET 0.000000 0.000000 0.000000
		CHANNELS 3 Zrotation Yrotation Xrotation
		JOINT RightUpLeg
		{
			OFFSET -6.876100 -6.733299 0.301000
			CHANNELS 3 Zrotation Yrotation Xrotation
			JOINT RightLeg
			{
				OFFSET 0.347353 -34.795158 -4.515900
				CHANNELS 3 Zrotation Yrotation Xrotation
				End Site #name: RightFoot
				{
					OFFSET -0.347353 -34.589367 -6.070300
				}
			}
		}
	}
}
MOTION
Frames: 9
Frame Time: 0.041667
0.579669 -0.207241 1.864998 -27.622092 16.594965 -34.765766 -0.000000 -0.000000 0.000000 -9.640338 1.573544 14.988832 -0.001492 0.582763 1.095494 0.000000 0.000000 0.000000 -2.238782 2.322918 0.257222 7.017619 0.502071 0.928091 -3.594797 2.785037 8.116012 -8.233440 -5.272428 1.994745 -56.202290 -16.829908 -3.265836 -4.013981 -48.062033 6.348175 2.022633 0.577874 1.932114 19.991532 10.131558 -0.924193 58.814054 18.176935 -35.335780 -128.175631 82.046029 -137.720195 0.000000 0.000000 0.000000 2.617407 7.063290 -88.102704 16.745003 -7.697853 128.163222 -0.000000 0.000000 -0.000000 14.157243 -5.527224 -75.066842 2.159095 14.858932 107.026760 
1.413796 -1.751053 4.626582 -21.507103 2.777364 -55.327723 -0.000000 -0.000000 0.000000 -5.872817 3.731942 37.806655 0.301177 0.492762 6.556589 0.000000 0.000000 0.000000 -0.566152 0.579610 5.423618 -0.771073 5.881026 -4.466458 -1.697027 1.015079 13.282101 -8.391817 -11.262481 3.828832 -58.683609 1.861973 -2.459350 -11.771059 -68.919578 14.770382 1.156045 3.557923 3.854495 22.328917 11.581531 1.562475 39.195754 40.156011 -37.439862 -35.158749 83.458845 -53.271913 0.000000 0.000000 0.000000 11.106949 17.573185 -75.497216 13.945033 -2.917926 114.390798 -0.000000 -0.000000 -0.000000 5.765603 -2.215821 -69.752137 -1.405982 3.564397 92.845894 
2.294679 -2.211746 7.995743 -19.725410 -1.363613 -61.393425 -0.000000 0.000000 0.000000 -0.136702 2.629302 49.691270 0.348124 -0.106925 6.798179 0.000000 0.000000 0.000000 -0.839305 0.629457 5.516081 -3.407275 8.903838 -6.610831 -2.080904 0.194609 14.064686 -10.000311 -12.229173 5.200715 -60.137167 -3.877663 0.374352 -8.215698 -65.310859 12.609030 1.138762 2.959410 6.406083 20.841688 17.064952 2.476312 45.873020 36.356693 -33.337700 -6.996954 82.505129 -20.125996 0.000000 0.000000 0.000000 15.705476 17.426023 -74.097271 1.608710 1.341893 120.038568 -0.000000 -0.000000 0.000000 -3.611397 -5.123731 -68.010693 -3.760000 2.135268 97.923168 
3.451649 -2.984580 10.736933 -19.596992 -1.008494 -62.646444 -0.000000 0.000000 0.000000 1.603495 2.813340 52.816005 0.432531 -0.483908 8.335011 0.000000 0.000000 0.000000 -1.146963 0.543608 6.030637 -2.142493 9.007172 -4.308203 -2.014534 -0.254258 14.966154 -10.474250 -11.541194 5.753643 -59.661207 -2.328593 -0.408676 -3.403532 -53.884864 8.858899 0.721241 2.650479 7.276293 20.102849 17.067434 2.376314 45.342266 35.437199 -37.569647 5.447553 80.188549 -3.140113 0.000000 0.000000 0.000000 17.241368 16.877421 -68.376148 -0.558452 2.330182 117.492816 -0.000000 -0.000000 0.000000 -6.045169 -5.416130 -71.021087 -5.123151 1.199339 105.477481 
4.641723 -3.673488 12.332968 -19.491922 -1.300608 -62.660131 0.000000 0.000000 0.000000 1.918214 3.455533 55.169628 0.701452 -0.759151 9.585964 0.000000 0.000000 0.000000 -1.309171 0.185703 6.757350 -1.640536 9.543060 -2.220994 -1.635780 -0.278804 15.168759 -9.981262 -9.631041 5.625167 -59.328085 1.500613 -3.869988 -0.687558 -45.753449 7.181493 0.311599 2.212642 7.942597 19.860828 16.425246 2.319748 44.642095 32.369281 -37.888037 7.670041 76.439274 2.275953 0.000000 0.000000 0.000000 17.984202 16.697645 -62.489717 -1.335058 2.337420 112.399880 -0.000000 -0.000000 0.000000 -7.245006 -3.088910 -70.810035 -5.731304 0.210376 108.742176 
5.818587 -4.167847 13.083364 -18.539185 -0.333776 -63.610257 0.000000 0.000000 0.000000 2.382977 3.589934 57.152699 0.847926 -0.933944 10.227266 0.000000 0.000000 0.000000 -1.404941 -0.254343 7.118905 -1.440661 9.841083 -0.385556 -1.273554 -0.485533 14.984796 -9.121403 -8.792297 5.281598 -58.014183 1.973889 -6.552327 1.005213 -42.737038 6.249789 0.013858 1.779227 8.261761 19.460664 14.571990 2.009109 46.091644 26.919268 -35.308160 6.634403 73.749838 1.585512 0.000000 0.000000 0.000000 18.251588 15.762074 -58.201713 -2.481836 1.894564 107.220465 -0.000000 -0.000000 0.000000 -7.377997 0.101813 -69.037253 -5.668952 -0.196008 110.179578 
7.037280 -4.338790 13.272973 -15.834418 1.481406 -65.559349 0.000000 0.000000 0.000000 2.554662 3.713954 58.133059 0.897027 -1.030169 10.502705 0.000000 0.000000 0.000000 -1.459397 -0.747709 7.194276 -0.922377 9.404482 1.281879 -0.943696 -0.877965 14.472038 -8.582534 -9.336886 4.922324 -55.902640 -0.326606 -7.693817 2.241500 -43.992222 5.348857 -0.269648 1.386391 8.456233 18.778068 11.529966 1.407088 48.243000 20.132284 -33.132544 5.310418 71.180572 0.448103 0.000000 0.000000 0.000000 17.965336 14.667568 -54.458849 -2.889137 1.368771 103.390583 -0.000000 -0.000000 0.000000 -6.568362 2.582432 -67.775800 -5.186850 -0.402209 110.817805 
8.378008 -4.209240 13.116775 -11.590635 5.159380 -67.462768 0.000000 0.000000 0.000000 2.452791 3.819637 58.216611 0.847087 -1.042440 10.543920 0.000000 0.000000 0.000000 -1.490603 -1.300473 6.810479 -0.384370 8.208431 2.275845 -0.686944 -1.486559 13.730134 -8.577697 -10.996763 4.598609 -53.610464 -4.893446 -7.535647 3.474477 -47.539899 3.998132 -0.560455 0.921797 8.551170 18.185538 7.533237 0.640157 49.992633 13.480775 -32.455973 4.076193 68.390685 -0.722272 0.000000 0.000000 0.000000 16.801637 13.420755 -51.305225 -3.524831 1.010724 100.774272 -0.000000 -0.000000 0.000000 -5.779616 4.085210 -67.695910 -4.307252 -0.475027 110.792052 
9.876947 -4.083328 12.742030 -6.587695 10.984293 -68.622335 0.000000 0.000000 0.000000 2.148022 3.835638 57.871828 0.782069 -1.057679 10.265988 0.000000 0.000000 0.000000 -1.566050 -1.966615 5.935218 0.392408 6.470807 3.164052 -0.457943 -2.361325 12.793446 -9.033658 -13.787513 4.325114 -51.377972 -12.054322 -6.518188 4.875914 -53.660508 2.057964 -0.771277 0.328089 8.489480 17.537683 3.079155 -0.238935 51.455737 7.578529 -33.332427 3.065679 65.005702 -1.812371 -0.000000 0.000000 0.000000 14.886178 12.502041 -50.536818 -4.515545 0.708832 99.181164 -0.000000 -0.000000 0.000000 -5.086902 4.840450 -67.921972 -3.012422 -0.433149 109.639765 
